# AST/ASF file generated using VICON BodyLanguage
# -----------------------------------------------
:version 1.10
:name VICON
:units
  mass 1.0
  length 0.45
  angle deg
:documentation
   .ast/.asf automatically generated from VICON data using
   VICON BodyBuilder and BodyLanguage model FoxedUp or BRILLIANT.MOD
:root
   order TX TY TZ RX RY RZ
   axis XYZ
   position 0 0 0  
   orientation 0 0 0 
:bonedata
  begin
     id 1 
     name lhipjoint
     direction 0.57768 -0.667037 0.470475 
     length 2.36008 
     axis 0 0 0  XYZ
  end
  begin
     id 2 
     name lfemur
     direction 0.34202 -0.939693 0  
     length 6.97235  
     axis 0 0 20  XYZ
    dof rx ry rz
    limits (-160.0 20.0)
           (-70.0 70.0)
           (-60.0 70.0)
  end
  begin
     id 3 
     name ltibia
     direction 0.34202 -0.939693 0   
     length 6.93428   
     axis 0 0 20   XYZ
    dof rx
    limits (-10.0 170.0)
  end
  begin
     id 4 
     name lfoot
     direction 0.133018 -0.365463 0.921272   
     length 2.18603   
     axis -90 7.62852e-016 20   XYZ
    dof rx rz
    limits (-45.0 90.0)
           (-70.0 20.0)
  end
  begin
     id 5 
     name ltoes
     direction 1.53519e-011 -4.22055e-011 1   
     length 1.07924   
     axis -90 7.62852e-016 20   XYZ
    dof rx
    limits (-90.0 20.0)
  end
  begin
     id 6 
     name rhipjoint
     direction -0.577712 -0.667019 0.470462   
     length 2.36015  
     axis 0 0 0  XYZ 
  end
  begin
     id 7 
     name rfemur
     direction -0.34202 -0.939693 0   
     length 6.71195   
     axis 0 0 -20   XYZ
    dof rx ry rz
    limits (-160.0 20.0)
           (-70.0 70.0)
           (-70.0 60.0)
  end
  begin
     id 8 
     name rtibia
     direction -0.34202 -0.939693 0   
     length 7.04592   
     axis 0 0 -20   XYZ
    dof rx
    limits (-10.0 170.0)
 end
 begin
     id 9 
     name rfoot
     direction -0.113796 -0.312651 0.943027   
     length 2.03846  
     axis -90 -7.62852e-016 -20   XYZ
    dof rx rz
    limits (-45.0 90.0)
           (-20.0 70.0)
  end
  begin
     id 10 
     name rtoes
     direction -1.53586e-011 -4.218e-011 1   
     length 1.01562   
     axis -90 -7.62852e-016 -20   XYZ
    dof rx
    limits (-90.0 20.0)
  end
  begin
     id 11 
     name lowerback
     direction -0.0417299 0.991937 -0.119667   
     length 2.05257   
     axis 0 0 0   XYZ
    dof rx ry rz
    limits (-20.0 45.0)
           (-30.0 30.0)
           (-30.0 30.0)
  end
  begin
     id 12 
     name upperback
     direction -0.00017666 0.999999 0.00105178   
     length 2.05693   
     axis 0 0 0   XYZ
    dof rx ry rz
    limits (-20.0 45.0)
           (-30.0 30.0)
           (-30.0 30.0)
  end
  begin
     id 13 
     name thorax
     direction 0.0185169 0.998203 0.0569866   
     length 2.0932   
     axis 0 0 0   XYZ
    dof rx ry rz
    limits (-20.0 45.0)
           (-30.0 30.0)
           (-30.0 30.0)
  end
  begin
     id 14 
     name lowerneck
     direction -0.0212406 0.982645 0.184277   
     length 1.72509   
     axis 0 0 0   XYZ
    dof rx ry rz
    limits (-20.0 45.0)
           (-30.0 30.0)
           (-30.0 30.0)
  end
  begin
     id 15 
     name upperneck
     direction 0.00528579 0.965323 -0.261004   
     length 1.76294   
     axis 0 0 0   XYZ
    dof rx ry rz
    limits (-20.0 45.0)
           (-30.0 30.0)
           (-30.0 30.0)
  end
  begin
     id 16
     name head
     direction 0.00695421 0.994078 -0.108445  
     length 1.78678  
     axis 0 0 0   XYZ
    dof rx ry rz
    limits (-20.0 45.0)
           (-30.0 30.0)
           (-30.0 30.0)
  end
  begin
     id 17 
     name lclavicle
     direction 0.97277 0.211305 -0.095232  
     length 3.84823  
     axis 0 0 0   XYZ
    dof ry rz
    limits (-20.0 10.0)
           (0.0 20.0)
  end
  begin
     id 18 
     name lhumerus
     direction 1 -4.48957e-011 -1.98313e-027   
     length 4.97185   
     axis 180 -30 -90   XYZ
    dof rx ry rz
    limits (-60.0 90.0)
           (-90.0 90.0)
           (-90.0 90.0)
  end
  begin
     id 19
     name lradius
     direction 1 -4.4898e-011 7.31063e-027   
     length 3.35811   
     axis 180 -30 -90   XYZ
    dof rx
    limits (-10.0 170.0)
  end
  begin
     id 20
     name lwrist
     direction 1 -4.48938e-011 9.95048e-027   
     length 1.67905   
     axis -8.75986e-015 90 90   XYZ
    dof ry
    limits (-180.0 0.0)
 end
  begin
     id 21 
     name lhand
     direction 1 -4.4901e-011 1.9901e-026   
     length 0.622776   
     axis -1.26985e-014 90 90   XYZ
    dof rx rz
    limits (-90.0 90.0)
           (-45.0 45.0)
  end
  begin
     id 22 
     name lfingers
     direction 1 -4.48961e-011 3.98019e-026   
     length 0.502098   
     axis -2.5397e-014 90 90   XYZ
    dof rx
    limits (0.0 90.0)
  end
  begin
     id 23
     name lthumb
     direction 0.707107 -6.34933e-011 0.707107   
     length 0.720915   
     axis -90 45 2.85299e-015   XYZ
    dof rx rz
    limits (-45.0 45.0)
           (-45.0 45.0)
  end
  begin
     id 24 
     name rclavicle
     direction -0.990867 0.133739 -0.0172226   
     length 3.78845  
     axis 0 0 0   XYZ 
    dof ry rz
    limits (-10.0 20.0)
           (-20.0 0.0)
  end
  begin
     id 25 
     name rhumerus
     direction -1 -4.48972e-011 -1.99267e-027  
     length 4.96493   
     axis 180 30 90   XYZ
    dof rx ry rz
    limits (-90.0 60.0)
           (-90.0 90.0)
           (-90.0 90.0)
  end
  begin
     id 26 
     name rradius
     direction -1 -4.48969e-011 8.96093e-027   
     length 3.34929   
     axis 180 30 90   XYZ
    dof rx
    limits (-10.0 170.0)
  end
  begin
     id 27 
     name rwrist
     direction -1 -4.48953e-011 9.95048e-027   
     length 1.67464   
     axis -8.75986e-015 -90 -90   XYZ
    dof ry
    limits (-180.0 0.0)
  end
  begin
     id 28
     name rhand
     direction -1 -4.49001e-011 1.9901e-026   
     length 0.638041   
     axis -1.26985e-014 -90 -90   XYZ
    dof rx rz
    limits (-90.0 90.0)
           (-45.0 45.0)
  end
  begin
     id 29
     name rfingers
     direction -1 -4.48967e-011 3.98019e-026   
     length 0.514405   
     axis -2.5397e-014 -90 -90   XYZ
    dof rx
    limits (0.0 90.0)
  end
  begin
     id 30
     name rthumb
     direction -0.707107 -6.34904e-011 0.707107   
     length 0.738586   
     axis -90 -45 -2.85299e-015   XYZ
    dof rx rz
    limits (-45.0 45.0)
           (-45.0 45.0)
  end
:hierarchy
  begin
    root lhipjoint rhipjoint lowerback
    lhipjoint lfemur
    lfemur ltibia
    ltibia lfoot
    lfoot ltoes
    rhipjoint rfemur
    rfemur rtibia
    rtibia rfoot
    rfoot rtoes
    lowerback upperback
    upperback thorax
    thorax lowerneck lclavicle rclavicle
    lowerneck upperneck
    upperneck head
    lclavicle lhumerus
    lhumerus lradius
    lradius lwrist
    lwrist lhand lthumb
    lhand lfingers
    rclavicle rhumerus
    rhumerus rradius
    rradius rwrist
    rwrist rhand rthumb
    rhand rfingers
  end

#!OML:ASF E:\Mandelcareful walks\Project 1\Capture day 1\Session 1\Subject1.ASF
:FULLY-SPECIFIED
:DEGREES
82
root -8.42839 1.65204 1.0546 145.031 84.6107 42.6643
lowerback -18.0062 0.873808 1.07026
upperback -3.02913 1.15069 -0.445493
thorax 6.85541 0.663788 -0.805255
lowerneck -8.72565 22.1776 15.6326
upperneck 26.2109 32.4671 -14.3055
head 15.7839 13.9415 -1.67549
rclavicle -7.95139e-015 3.43897e-014
rhumerus 16.8254 -35.4771 -13.6169
rradius 128.984
rwrist -26.4276
rhand -14.9311 -34.9066
rfingers 7.12502
rthumb 11.2312 -64.586
lclavicle -7.95139e-015 3.43897e-014
lhumerus 29.0661 27.9426 33.6944
lradius 123.268
lwrist 15.7736
lhand -18.6663 -19.5936
lfingers 7.12502
lthumb 7.62726 10.2489
rfemur -18.5606 -19.484 18.8913
rtibia 26.6788
rfoot -21.1258 -25.3298
rtoes 6.82127
lfemur -23.7988 10.8175 -18.4332
ltibia 38.2008
lfoot -18.3566 16.0219
ltoes 10.2173
83
root -8.43311 1.65278 1.05493 149.769 84.9084 47.5682
lowerback -17.8194 0.923372 1.62941
upperback -3.01704 1.09849 -0.300907
thorax 6.77259 0.647836 -0.983176
lowerneck -8.62806 22.1841 15.6104
upperneck 26.1233 32.4771 -14.3373
head 15.7278 13.9546 -1.69455
rclavicle -9.46215e-014 -1.55151e-013
rhumerus 16.8485 -35.4205 -13.6318
rradius 128.923
rwrist -26.2996
rhand -15.0011 -34.9046
rfingers 7.12502
rthumb 11.1637 -64.5876
lclavicle -9.46215e-014 -1.55151e-013
lhumerus 29.051 27.9942 33.6477
lradius 123.231
lwrist 15.855
lhand -18.6311 -19.6028
lfingers 7.12502
lthumb 7.66121 10.2384
rfemur -18.3036 -19.3038 19.3929
rtibia 26.6193
rfoot -21.6144 -25.2639
rtoes 7.12978
lfemur -23.6768 10.8757 -17.7984
ltibia 38.2469
lfoot -18.6222 15.9447
ltoes 11.711
84
root -8.43718 1.65247 1.05384 151.665 84.9851 49.5298
lowerback -17.7693 0.921658 1.80853
upperback -2.99465 1.05611 -0.233271
thorax 6.76989 0.629731 -1.02307
lowerneck -9.16428 22.2546 15.4393
upperneck 27.1431 32.5583 -13.5714
head 16.1034 13.9319 -1.31686
rclavicle 8.5875e-014 6.94752e-014
rhumerus 16.9137 -35.4035 -13.6636
rradius 128.887
rwrist -26.2402
rhand -15.0671 -35.0045
rfingers 7.12502
rthumb 11.1 -64.691
lclavicle 8.5875e-014 6.94752e-014
lhumerus 29.1233 28.0796 33.6582
lradius 123.159
lwrist 15.8868
lhand -18.544 -19.5323
lfingers 7.12502
lthumb 7.74533 10.3058
rfemur -18.1343 -19.3033 19.5439
rtibia 26.4891
rfoot -21.8761 -25.0552
rtoes 7.29821
lfemur -23.652 10.8744 -17.5824
ltibia 38.3143
lfoot -18.9197 15.9042
ltoes 12.7061
85
root -8.4368 1.65188 1.05325 150.893 84.9222 48.7802
lowerback -17.7382 0.888025 1.69248
upperback -2.98662 1.03257 -0.227658
thorax 6.75896 0.6151 -0.957013
lowerneck -9.32639 22.2715 15.3835
upperneck 27.435 32.5972 -13.406
head 16.2302 13.9253 -1.22011
rclavicle -2.3059e-014 -7.85199e-014
rhumerus 17.0153 -35.4248 -13.6761
rradius 128.881
rwrist -26.3303
rhand -15.1265 -35.0901
rfingers 7.12502
rthumb 11.0428 -64.7796
lclavicle -2.3059e-014 -7.85199e-014
lhumerus 29.1489 28.1122 33.6889
lradius 123.118
lwrist 15.8459
lhand -18.4896 -19.505
lfingers 7.12502
lthumb 7.79777 10.3312
rfemur -18.0724 -19.4313 19.4557
rtibia 26.4067
rfoot -21.6093 -25.0514
rtoes 7.27088
lfemur -23.6346 10.8657 -17.6843
ltibia 38.3436
lfoot -18.9285 15.9301
ltoes 11.8616
86
root -8.43431 1.65187 1.05506 151.05 84.9769 48.9661
lowerback -17.6734 0.884316 1.71407
upperback -2.97653 1.02087 -0.191128
thorax 6.734 0.608901 -0.933748
lowerneck -9.29923 22.2929 15.3437
upperneck 27.323 32.641 -13.5002
head 16.1948 13.9411 -1.2418
rclavicle 8.66701e-014 1.25905e-013
rhumerus 17.1078 -35.4404 -13.6971
rradius 128.885
rwrist -26.367
rhand -15.189 -35.11
rfingers 7.12502
rthumb 10.9825 -64.8028
lclavicle 8.66701e-014 1.25905e-013
lhumerus 29.0442 28.133 33.669
lradius 123.175
lwrist 15.8006
lhand -18.5378 -19.6008
lfingers 7.12502
lthumb 7.75131 10.2372
rfemur -18.0814 -19.3341 19.5167
rtibia 26.4745
rfoot -21.4289 -25.2264
rtoes 8.32261
lfemur -23.5955 10.9728 -17.6384
ltibia 38.304
lfoot -18.9133 16.01
ltoes 10.2674
87
root -8.43352 1.65112 1.05573 149.571 84.8991 47.3327
lowerback -17.8273 0.859891 1.5518
upperback -2.99273 1.02167 -0.234331
thorax 6.79826 0.607229 -0.885648
lowerneck -9.30739 22.3237 15.2476
upperneck 27.208 32.661 -13.4805
head 16.1182 13.9527 -1.22268
rclavicle -1.26427e-013 -1.28365e-013
rhumerus 17.1163 -35.4205 -13.7496
rradius 128.906
rwrist -26.2754
rhand -15.2787 -35.17
rfingers 7.12502
rthumb 10.896 -64.8673
lclavicle -1.26427e-013 -1.28365e-013
lhumerus 28.9549 28.1333 33.6683
lradius 123.262
lwrist 15.7613
lhand -18.5764 -19.6394
lfingers 7.12502
lthumb 7.71405 10.1999
rfemur -18.3088 -19.2946 19.3899
rtibia 26.5874
rfoot -21.511 -25.1602
rtoes 9.18586
lfemur -23.7465 11.009 -17.8686
ltibia 38.2526
lfoot -18.9499 16.0505
ltoes 10.4767
88
root -8.43589 1.65051 1.05487 148.039 84.7525 45.6605
lowerback -17.9801 0.823589 1.32897
upperback -3.02286 1.02003 -0.281564
thorax 6.84593 0.603132 -0.808137
lowerneck -9.36638 22.3276 15.2168
upperneck 27.3494 32.6651 -13.3719
head 16.1643 13.9477 -1.17245
rclavicle -5.64548e-014 -7.79236e-014
rhumerus 17.0999 -35.4136 -13.7165
rradius 128.89
rwrist -26.2665
rhand -15.3494 -35.2169
rfingers 7.12502
rthumb 10.8278 -64.9178
lclavicle -5.64548e-014 -7.79236e-014
lhumerus 28.9412 28.1038 33.6956
lradius 123.264
lwrist 15.7332
lhand -18.5577 -19.6095
lfingers 7.12502
lthumb 7.73205 10.2291
rfemur -18.5168 -19.4055 19.2101
rtibia 26.6939
rfoot -21.5685 -25.023
rtoes 9.18332
lfemur -23.8645 10.9517 -18.138
ltibia 38.2092
lfoot -18.8536 16.005
ltoes 11.5785
89
root -8.43766 1.65065 1.05493 148.644 84.777 46.2418
lowerback -17.9956 0.818382 1.39301
upperback -3.0318 0.999342 -0.261208
thorax 6.84476 0.594327 -0.827505
lowerneck -9.46964 22.3381 15.1832
upperneck 27.5848 32.6984 -13.2521
head 16.2675 13.9441 -1.10263
rclavicle -7.4743e-014 -8.8658e-014
rhumerus 17.1729 -35.4188 -13.7556
rradius 128.893
rwrist -26.3006
rhand -15.4047 -35.2001
rfingers 7.12502
rthumb 10.7744 -64.9037
lclavicle -7.4743e-014 -8.8658e-014
lhumerus 28.9501 28.1414 33.6536
lradius 123.212
lwrist 15.7497
lhand -18.5552 -19.5881
lfingers 7.12502
lthumb 7.73447 10.2505
rfemur -18.6134 -19.5105 19.2976
rtibia 26.8044
rfoot -21.49 -24.9717
rtoes 8.68958
lfemur -23.8663 10.8986 -18.0653
ltibia 38.1659
lfoot -18.6395 15.9826
ltoes 11.9645
90
root -8.43342 1.64988 1.05568 147.236 84.7033 44.7438
lowerback -18.0513 0.790142 1.26583
upperback -3.05251 0.990238 -0.308776
thorax 6.85128 0.587891 -0.807727
lowerneck -9.46552 22.369 15.1335
upperneck 27.5482 32.7501 -13.2728
head 16.2527 13.9617 -1.09216
rclavicle 5.88403e-014 4.63168e-014
rhumerus 17.2558 -35.3729 -13.9073
rradius 128.952
rwrist -26.2639
rhand -15.5002 -35.2712
rfingers 7.12502
rthumb 10.6823 -64.9797
lclavicle 5.88403e-014 4.63168e-014
lhumerus 28.9598 28.2257 33.5881
lradius 123.176
lwrist 15.7877
lhand -18.571 -19.6139
lfingers 7.12502
lthumb 7.71925 10.2252
rfemur -18.7732 -19.6118 19.1796
rtibia 26.8518
rfoot -21.2583 -24.9965
rtoes 7.9215
lfemur -23.9358 10.8266 -18.2324
ltibia 38.1419
lfoot -18.5616 16.0048
ltoes 12.2206
